<svg><defs>
<svg id="dashboard" viewBox="0 0 24 24" height="24" width="24">
<path d="M12.984 3h8.016v6h-8.016v-6zM12.984 21v-9.984h8.016v9.984h-8.016zM3 21v-6h8.016v6h-8.016zM3 12.984v-9.984h8.016v9.984h-8.016z"></path>
</svg>
<svg id="app_data" width="32" height="32" viewBox="0 0 32 32">
<path d="M16.014 22.082c-0.037 0-0.074 0-0.111 0-8.782 0-15.885-2.133-15.887-3.771l-0.016-6.433c0-0.010 0.004-0.019 0.004-0.027 1.446 0.686 3.145 1.002 4.161 1.191 3.157 0.587 7.327 0.911 11.738 0.911h0.111c4.439-0.005 8.633-0.337 11.813-0.934 1.017-0.191 2.71-0.509 4.157-1.191 0 0.003 0 0.009 0 0.009l0.017 6.433c0.002 1.645-7.153 3.8-15.987 3.812zM16.014 12.016c-0.037 0-0.074 0-0.111 0-8.782 0-15.885-1.946-15.887-3.584l-0.016-5.434c-0.003-1.644 7.156-2.987 15.99-2.998 0.039 0 0.076 0 0.115 0 8.779 0 15.877 1.32 15.879 2.958l0.017 5.434c0.002 1.644-7.153 3.612-15.987 3.624zM15.902 24.020h0.111c4.439-0.006 8.634-0.524 11.813-1.121 1.017-0.191 2.71-0.509 4.158-1.192l0.016 7.296c0.002 1.645-7.153 2.987-15.987 2.998-0.038 0-0.074 0-0.113 0-8.78 0-15.883-1.32-15.885-2.957l-0.015-7.315c1.446 0.687 3.146 1.003 4.164 1.192 3.157 0.588 7.326 1.099 11.738 1.099z"></path>
</svg>
<svg id="access_menu" width="32" height="32" viewBox="0 0 32 32">
<path d="M22 14c-1 0-2 0-2 0s0-2 0-6-4-8-8-8-8 4-8 8 0 6 0 6-1 0-2 0-2 1-2 2 0 13 0 14 1 2 2 2 19 0 20 0 2-1 2-2 0-13 0-14-1-2-2-2zM16 18h-12v2h12v2h-12v2h12v2h-12v2h12v2h-14v-14h14v2zM16 14h-8s0-4 0-6 2-4 4-4 4 2 4 4 0 6 0 6z"></path>
</svg>

<svg id="profiles" width="32" height="32" viewBox="0 0 32 32">
<path d="M10 6c0-3.314 2.686-6 6-6s6 2.686 6 6c0 3.314-2.686 6-6 6s-6-2.686-6-6zM24.002 14h-1.107l-6.222 12.633 2.327-11.633-3-3-3 3 2.327 11.633-6.222-12.633h-1.107c-3.998 0-3.998 2.687-3.998 6v10h24v-10c0-3.313 0-6-3.998-6z"></path>
</svg>
<svg id="consumers" width="32" height="32" viewBox="0 0 24 24">
<path d="M7 8c-2.209 0-4-1.791-4-4s1.791-4 4-4v0c2.209 0 4 1.791 4 4s-1.791 4-4 4v0zM7 9c2.15 0 4.2 0.4 6.1 1.090l-1.1 5.91h-1.25l-0.75 4h-6l-0.75-4h-1.25l-1.1-5.91c1.813-0.684 3.909-1.083 6.097-1.090h0.003zM15.31 9.17c1.32 0.18 2.59 0.48 3.8 0.92l-1.11 5.91h-1.25l-0.75 4h-3.96l0.37-2h1.25l1.65-8.83zM13 0c0.010-0 0.022-0 0.034-0 2.209 0 4 1.791 4 4s-1.791 4-4 4c-0.49 0-0.958-0.088-1.392-0.249l0.028 0.009c0.832-1.017 1.336-2.329 1.336-3.76s-0.504-2.743-1.344-3.771l0.008 0.011c0.43-0.14 0.86-0.24 1.33-0.24z"></path>
</svg>
<svg id="reports" width="32" height="32" viewBox="0 0 32 32">
<path d="M30 2c-1 0-27 0-28 0s-2 1-2 2 0 17 0 18 1 2 2 2 10 0 10 0-6 2-6 4c0 1 1 2 2 2s15 0 16 0 2-1 2-2c0-2-6-4-6-4s9 0 10 0 2-1 2-2 0-17 0-18-1-2-2-2zM30 22h-28v-18h28v18zM28 6h-6c-12 2-16.938 9.375-18 12v2h24v-14z"></path>
</svg>
<svg id="branches" width="34" height="32" viewBox="0 0 34 32">
<path d="M32.533 23.467h-0.533v-6.933c0-2.059-1.675-3.733-3.733-3.733h-9.067v-4.267h0.533c0.88 0 1.6-0.72 1.6-1.6v-5.333c0-0.88-0.72-1.6-1.6-1.6h-5.333c-0.88 0-1.6 0.72-1.6 1.6v5.333c0 0.88 0.72 1.6 1.6 1.6h0.533v4.267h-9.067c-2.059 0-3.733 1.675-3.733 3.733v6.933h-0.533c-0.88 0-1.6 0.72-1.6 1.6v5.333c0 0.88 0.72 1.6 1.6 1.6h5.333c0.88 0 1.6-0.72 1.6-1.6v-5.333c0-0.88-0.72-1.6-1.6-1.6h-0.533v-6.4h8.533v6.4h-0.533c-0.88 0-1.6 0.72-1.6 1.6v5.333c0 0.88 0.72 1.6 1.6 1.6h5.333c0.88 0 1.6-0.72 1.6-1.6v-5.333c0-0.88-0.72-1.6-1.6-1.6h-0.533v-6.4h8.533v6.4h-0.533c-0.88 0-1.6 0.72-1.6 1.6v5.333c0 0.88 0.72 1.6 1.6 1.6h5.333c0.88 0 1.6-0.72 1.6-1.6v-5.333c0-0.88-0.72-1.6-1.6-1.6z">
</svg>
<svg id="settings" width="32" height="32" viewBox="0 0 32 32">
<path d="M24.982 9.718c0.373 0.373 0.978 0.373 1.35 0l5.283-4.159c0.879 2.764 0.258 5.902-1.935 8.095-2.092 2.093-5.046 2.752-7.714 2.048l-6.266 6.266c0.704 2.669 0.044 5.622-2.047 7.714-2.193 2.193-5.332 2.814-8.096 1.935l4.161-5.282c0.373-0.374 0.373-0.978 0-1.351l-2.7-2.699c-0.373-0.373-0.978-0.373-1.35 0l-5.283 4.159c-0.879-2.764-0.258-5.901 1.934-8.094 2.093-2.093 5.046-2.753 7.715-2.048l6.267-6.267c-0.705-2.668-0.045-5.622 2.046-7.714 2.193-2.193 5.332-2.814 8.097-1.936l-4.161 5.284c-0.372 0.372-0.372 0.977 0 1.349l2.699 2.7z"></path>
</svg>
</defs></svg>
