<svg><defs>
<svg id="admin_dashboard" viewBox="0 0 24 24" height="24" width="24">
<path d="M12.984 3h8.016v6h-8.016v-6zM12.984 21v-9.984h8.016v9.984h-8.016zM3 21v-6h8.016v6h-8.016zM3 12.984v-9.984h8.016v9.984h-8.016z"></path>
</svg>
<svg id="menu_access" width="512" height="512" viewBox="0 0 512 512">
<path d="M32 96h448v96h-448zM32 224h448v96h-448zM32 352h448v96h-448z"></path>
</svg>
<svg id="location" width="512" height="512" viewBox="0 0 32 32">
<path d="M16 0c-5.523 0-10 4.477-10 10 0 10 10 22 10 22s10-12 10-22c0-5.523-4.477-10-10-10zM16 16c-3.314 0-6-2.686-6-6s2.686-6 6-6 6 2.686 6 6-2.686 6-6 6z"></path>
</svg>
<svg id="package_status" width="512" height="512" viewBox="0 0 32 32">
<path d="M2.005 22.825l13.039 6.169v-13.8l-13.039-5.52v13.151zM6.006 14.791l5.026 2.337-0.029 1.842-5.025-2.336 0.028-1.843zM16 15.194v13.8l12.994-6.169v-13.151l-12.994 5.52zM15.453 3.006l-13.363 5.757 13.375 5.712 13.514-5.725-13.526-5.744z"></path>
</svg>
<svg id="vechile_activity" width="512" height="512" viewBox="0 0 32 32">
<path d="M26.969 13c-0.553 0-1 0-1 0h-1.979l-0.013 1.256c0.598 0.341 0.992 0.989 0.992 1.744l0.042 6.938h-18.98v-6.938c0-0.738 0.404-1.376 1-1.723v-1.277h-2c0 0-0.448 0-1 0-0.553 0-1-0.448-1-1v-1c0-0.553 0.447-1 1-1 0.552 0 1 0 1 0v2h2v-3c0-1.104 0.896-2 2-2h13c1.104 0 2 0.896 2 2l-0.031 3h1.969v-2c0 0 0.447 0 1 0 0.552 0 1 0.447 1 1v1c0 0.552-0.448 1-1 1zM12.031 22h7v-1h-7v1zM12.031 20h7v-1h-7v1zM12.031 18h7v-1h-7v1zM8.031 21c0 0.552 0.447 1 1 1h1c0.552 0 1-0.448 1-1 0-0.553-0.448-1-1-1h-1c-0.552 0-1 0.447-1 1zM22.031 10c0-0.553-0.447-1-1-1h-11c-0.553 0-1 0.447-1 1v5h13v-5zM22.031 20h-1c-0.553 0-1 0.447-1 1 0 0.552 0.447 1 1 1h1c0.552 0 1-0.448 1-1 0-0.553-0.448-1-1-1zM23.031 6h-15c-1.104 0-2 0.896-2 2v-5c0-0.553 0.447-1 1-1h17c0.552 0 1 0.447 1 1v5c0-1.104-0.895-2-2-2zM25.031 24.938c0 0.552-0.448 1-1 1h-17c-0.553 0-1-0.448-1-1 0-0.553 0-1 0-1h19c0 0 0 0.447 0 1zM11.031 29c0 0.552-0.448 1-1 1h-1c-0.553 0-1-0.448-1-1v-2h3v2zM23.031 29c0 0.552-0.448 1-1 1h-1c-0.553 0-1-0.448-1-1v-2h3v2z"></path>
</svg>
<svg id="trip_activity" width="512" height="512" viewBox="0 0 32 32">
<path d="M26 22.563s0-9.563 0-12.563-3-6-6-6c-2 0-2 0-2 0v-4l-6 6 6 6v-4s1 0 2 0 2 1 2 2 0 12.563 0 12.563c-1.188 0.688-2 1.969-2 3.438 0 2.219 1.781 4 4 4s4-1.781 4-4c0-1.469-0.813-2.75-2-3.438zM24 28c-1.094 0-2-0.906-2-2s0.906-2 2-2 2 0.906 2 2-0.906 2-2 2zM10 24s-1 0-2 0-2-1-2-2 0-12.563 0-12.563c1.188-0.688 2-1.969 2-3.438 0-2.219-1.781-4-4-4s-4 1.781-4 4c0 1.469 0.813 2.75 2 3.438 0 0 0 9.563 0 12.563s3 6 6 6c2 0 2 0 2 0v4l6-6-6-6v4zM4 8c-1.094 0-2-0.906-2-2s0.906-2 2-2 2 0.906 2 2-0.906 2-2 2z"></path>
</svg>
<svg id="density_map" width="512" height="512" viewBox="0 0 32 32">
<path d="M2 0h12v2h-12zM18 0h12v2h-12zM29.75 10h-1.75v-8h-8v8h-8v-8h-8v8h-1.75c-1.238 0-2.25 1.012-2.25 2.25v17.5c0 1.238 1.012 2.25 2.25 2.25h9.5c1.238 0 2.25-1.012 2.25-2.25v-11.75h4v11.75c0 1.238 1.012 2.25 2.25 2.25h9.5c1.238 0 2.25-1.012 2.25-2.25v-17.5c0-1.238-1.012-2.25-2.25-2.25zM10.875 30h-7.75c-0.619 0-1.125-0.45-1.125-1s0.506-1 1.125-1h7.75c0.619 0 1.125 0.45 1.125 1s-0.506 1-1.125 1zM17 16h-2c-0.55 0-1-0.45-1-1s0.45-1 1-1h2c0.55 0 1 0.45 1 1s-0.45 1-1 1zM28.875 30h-7.75c-0.619 0-1.125-0.45-1.125-1s0.506-1 1.125-1h7.75c0.619 0 1.125 0.45 1.125 1s-0.506 1-1.125 1z"></path>
</svg>
<svg id="menu_lock" width="512" height="512" viewBox="0 0 32 32">
<path d="M22 14c-1 0-2 0-2 0s0-2 0-6-4-8-8-8-8 4-8 8 0 6 0 6-1 0-2 0-2 1-2 2 0 13 0 14 1 2 2 2 19 0 20 0 2-1 2-2 0-13 0-14-1-2-2-2zM16 18h-12v2h12v2h-12v2h12v2h-12v2h12v2h-14v-14h14v2zM16 14h-8s0-4 0-6 2-4 4-4 4 2 4 4 0 6 0 6z"></path>
</svg>
<svg id="profile" width="512" height="512" viewBox="0 0 32 32">
<path  d="M15.059 2.667c-7.36 0-13.333 5.973-13.333 13.333s5.973 13.333 13.333 13.333c7.36 0 13.333-5.973 13.333-13.333s-5.973-13.333-13.333-13.333zM15.059 6.667c2.213 0 4 1.787 4 4s-1.787 4-4 4c-2.213 0-4-1.787-4-4s1.787-4 4-4zM15.059 25.6c-3.333 0-6.28-1.707-8-4.293 0.040-2.653 5.333-4.107 8-4.107 2.653 0 7.96 1.453 8 4.107-1.72 2.587-4.667 4.293-8 4.293z"></path>
</svg>


</defs></svg>
