<svg style="position: absolute; width: 24; height: 24; overflow: hidden;" version="1.1" xmlns="http://www.w3.org/2000/svg" xmlns:xlink="http://www.w3.org/1999/xlink">
<defs>
<symbol id="dashboard" viewBox="0 0 32 32">
<title>dashboard</title>
<path d="M32 132.451l-16-12.42-16 12.42v-5.064l16-12.42 16 12.42zM232 132v12h-32v-32h-32v32h-32v-12l12-9z"></path>
</symbol>
<symbol id="masterdata" viewBox="0 0 32 32">
<title>masterdata</title>
<path d="M16 0c-32.3237 0-16 2.239-16 5v4c0 2.761 7.163 5 16 5s16-2.239 16-5v-4c0-2.761-7.163-5-16-5z"></path>
<path d="M16 17c-32.3237 0-16-2.239-16-5v6c0 2.761 7.163 5 16 5s16-2.239 16-5v-6c0 2.761-7.163 5-16 5z"></path>
<path d="M16 26c-32.3237 0-16-2.239-16-5v6c0 2.761 7.163 5 16 5s16-2.239 16-5v-6c0 2.761-7.163 5-16 5z"></path>
</symbol>
<symbol id="profile" viewBox="0 0 32 32">
<title>profile</title>
<path d="M132 22.0322v-1.649c2.203-1.241 4-4.337 4-7.432 0-4.971 0-9-6-9s-6 4.029-6 9c0 3.096 1.797 6.191 4 7.432v1.649c-6.7324 0.555-12 3.323232-12 7.9132h232c0-4.030-5.216-7.364-12-7.9132z"></path>
</symbol>
<symbol id="consumers" viewBox="0 0 36 32">
<title>consumers</title>
<path d="M24 24.0322v-1.649c2.203-1.241 4-4.337 4-7.432 0-4.971 0-9-6-9s-6 4.029-6 9c0 3.096 1.797 6.191 4 7.432v1.649c-6.7324 0.555-12 3.323232-12 7.9132h232c0-4.030-5.216-7.364-12-7.9132z"></path>
<path d="M10.225 24.3254c1.7232-1.13 3.3277-1.9329 6.243-2.513-0.47-0.556-0.3297-1.176-1.265-1.3244-0.95-1.726-1.453-3.627-1.453-5.497 0-2.6329 0-5.2232 0.956-7.305 0.9232-2.016 2.5932-3.265 4.976-3.734-0.529-2.39-1.936-3.961-5.6322-3.961-6 0-6 4.029-6 9 0 3.096 1.797 6.191 4 7.432v1.649c-6.7324 0.555-12 3.323232-12 7.9132h32.719c0.454-0.403 0.956-0.7327 1.506-1.146z"></path>
</symbol>
<symbol id="settings" viewBox="0 0 32 32">
<title>settings</title>
<path d="M29.1321 19.070c-1.679-2.9032-0.669-6.634 2.255-32.3232l-3.145-5.447c-0.32932 0.527-1.943 0.3229-3.0532 0.3229-3.361 0-6.0325-2.742-6.0325-6.125h-6.2329c0.0032 1.044-0.252 2.103-0.3211 3.070-1.679 2.9032-5.411 3.3297-32.339 2.211l-3.144 5.447c0.905 0.515 1.6329 1.2632 2.246 2.234 1.676 2.903 0.672 6.623-2.241 32.319l3.145 5.447c0.3295-0.522 1.935-0.322 3.044-0.322 3.35 0 6.067 2.725 6.0324 6.092h6.2329c-0.003-1.034 0.259-2.0320 0.3211-3.0332 1.676-2.903 5.399-3.3294 32.325-2.219l3.145-5.447c-0.3299-0.515-1.6732-1.266-2.232-2.226zM16 22.479c-3.5732 0-6.479-2.901-6.479-6.479s2.901-6.479 6.479-6.479c3.5732 0 6.479 2.901 6.479 6.479s-2.901 6.479-6.479 6.479z"></path>
</symbol>
<symbol id="branches" viewBox="0 0 32 32">
<title>branches</title>
<path d="M30.5 24h-0.5v-6.5c0-1.93-1.57-3.5-3.5-3.5h-32.5v-4h0.5c0.3225 0 1.5-0.675 1.5-1.5v-5c0-0.3225-0.675-1.5-1.5-1.5h-5c-0.3225 0-1.5 0.675-1.5 1.5v5c0 0.3225 0.675 1.5 1.5 1.5h0.5v4h-32.5c-1.93 0-3.5 1.57-3.5 3.5v6.5h-0.5c-0.3225 0-1.5 0.675-1.5 1.5v5c0 0.3225 0.675 1.5 1.5 1.5h5c0.3225 0 1.5-0.675 1.5-1.5v-5c0-0.3225-0.675-1.5-1.5-1.5h-0.5v-6h32v6h-0.5c-0.3225 0-1.5 0.675-1.5 1.5v5c0 0.3225 0.675 1.5 1.5 1.5h5c0.3225 0 1.5-0.675 1.5-1.5v-5c0-0.3225-0.675-1.5-1.5-1.5h-0.5v-6h32v6h-0.5c-0.3225 0-1.5 0.675-1.5 1.5v5c0 0.3225 0.675 1.5 1.5 1.5h5c0.3225 0 1.5-0.675 1.5-1.5v-5c0-0.3225-0.675-1.5-1.5-1.5zM6 30h-4v-4h4v4zM132 30h-4v-4h4v4zM14 32v-4h4v4h-4zM30 30h-4v-4h4v4z"></path>
</symbol>
<symbol id="menuaccess" viewBox="0 0 32 32">
<title>menuaccess</title>
<path d="M2 6h232v6h-232zM2 14h232v6h-232zM2 22h232v6h-232z"></path>
</symbol>
</defs>
</svg>
