<svg version="1.0" xmlns="http://www.w3.org/2000/svg"
 height="48pt" viewBox="0 0 1141.000000 445.000000"
 preserveAspectRatio="xMidYMid meet">

<g transform="translate(0.000000,445.000000) scale(0.100000,-0.100000)"
fill="#000000" stroke="none">
<path d="M5710 2220 l0 -2200 2810 0 2810 0 0 2200 0 2200 -2810 0 -2810 0 0
-2200z m2970 1895 l0 -45 -50 0 -50 0 0 45 0 45 50 0 50 0 0 -45z m-1923 -58
l38 -37 3 -338 3 -338 -23 -34 c-46 -69 -50 -70 -465 -70 l-373 0 0 430 0 431
390 -3 390 -3 37 -38z m829 -157 c46 -43 54 -77 54 -225 l0 -135 -305 0 -305
0 0 -88 c0 -55 4 -92 12 -100 9 -9 90 -12 305 -12 l293 0 0 -50 0 -50 -292 0
c-430 0 -413 -15 -413 350 0 273 1 280 68 321 30 18 48 19 294 17 l261 -3 28
-25z m805 15 c36 -19 69 -70 69 -107 0 -26 -3 -28 -45 -28 -28 0 -45 4 -45 12
0 6 -7 20 -17 30 -15 16 -36 18 -244 18 -224 0 -228 0 -243 -22 -16 -22 -21
-102 -10 -144 10 -39 43 -44 280 -44 249 0 268 -4 304 -63 16 -26 20 -50 20
-134 0 -100 -1 -103 -31 -138 -46 -52 -75 -57 -339 -53 -229 3 -236 4 -269 27
-32 23 -61 73 -61 106 0 11 11 15 44 15 36 0 47 -5 60 -25 l16 -25 235 0 c271
0 255 -6 255 104 0 99 9 96 -263 96 -201 0 -237 2 -266 18 -60 30 -76 62 -80
163 -4 104 6 136 56 179 l34 30 255 0 c211 0 260 -3 285 -15z m289 -330 l0
-345 -50 0 -50 0 0 345 0 345 50 0 50 0 0 -345z m771 330 c16 -9 39 -30 49
-48 19 -30 20 -53 20 -417 0 -517 26 -480 -335 -480 l-235 0 0 45 0 45 222 0
c267 0 258 -4 258 107 l0 73 -243 0 c-232 0 -245 1 -287 23 -76 38 -80 56 -80
319 0 136 4 238 11 255 13 34 47 72 74 83 11 5 132 9 268 9 205 1 253 -2 278
-14z m844 -5 c62 -38 65 -55 65 -379 l0 -291 -45 0 -45 0 0 282 c0 248 -2 284
-17 300 -15 16 -36 18 -241 18 -196 0 -228 -2 -244 -17 -17 -15 -18 -38 -18
-300 l0 -283 -45 0 -45 0 0 345 0 345 301 0 c285 0 303 -1 334 -20z m-3565
-1295 l0 -45 -347 -2 -348 -3 -3 -142 -3 -143 281 0 280 0 0 -45 0 -45 -277
-2 -278 -3 -3 -192 -2 -193 -45 0 -45 0 0 430 0 430 395 0 395 0 0 -45z m716
-155 c50 -46 54 -71 54 -312 0 -199 -3 -228 -20 -266 -15 -33 -29 -47 -62 -62
-39 -18 -67 -20 -272 -20 -209 0 -233 2 -271 20 -77 37 -80 51 -80 330 0 273
1 280 68 321 30 18 48 19 294 17 l261 -3 28 -25z m704 -15 l0 -45 -204 0
c-173 0 -207 -2 -220 -16 -14 -13 -16 -55 -16 -300 l0 -284 -51 0 -50 0 3 293
c4 414 -9 397 321 397 l217 0 0 -45z m410 -1280 l0 -115 150 0 150 0 0 -45 0
-45 -150 0 -150 0 0 -238 c0 -172 3 -241 12 -250 8 -8 56 -12 150 -12 l138 0
0 -50 0 -50 -135 0 c-152 0 -185 9 -228 59 l-27 33 0 414 0 414 45 0 45 0 0
-115z m-1830 10 l0 -45 -347 -2 -348 -3 -3 -142 -3 -143 281 0 280 0 0 -45 0
-45 -277 -2 -278 -3 -3 -192 -2 -193 -45 0 -45 0 0 430 0 430 395 0 395 0 0
-45z m716 -155 c46 -43 54 -77 54 -225 l0 -135 -305 0 -305 0 0 -88 c0 -55 4
-92 12 -100 9 -9 90 -12 305 -12 l293 0 0 -50 0 -50 -292 0 c-430 0 -413 -15
-413 350 0 273 1 280 68 321 30 18 48 19 294 17 l261 -3 28 -25z m824 4 c59
-50 60 -55 60 -374 l0 -291 -304 3 c-290 3 -306 4 -332 24 -63 47 -68 63 -72
220 l-4 144 306 0 306 0 0 93 c0 59 -4 97 -12 105 -9 9 -90 12 -305 12 l-293
0 0 45 0 45 309 0 309 0 32 -26z m780 -257 c0 -207 3 -286 12 -295 9 -9 77
-12 244 -12 229 0 233 0 248 22 14 19 16 65 16 295 l0 273 45 0 45 0 0 -287
c0 -317 -3 -333 -63 -377 -27 -20 -44 -21 -265 -24 -151 -2 -250 0 -274 7 -20
6 -50 27 -67 46 l-31 36 0 299 0 300 45 0 45 0 0 -283z m1270 238 l0 -45 -204
0 c-173 0 -207 -2 -220 -16 -14 -13 -16 -55 -16 -300 l0 -284 -51 0 -50 0 3
293 c4 414 -9 397 321 397 l217 0 0 -45z m736 15 c46 -43 54 -77 54 -225 l0
-135 -305 0 -305 0 0 -88 c0 -55 4 -92 12 -100 9 -9 90 -12 305 -12 l293 0 0
-50 0 -50 -292 0 c-430 0 -413 -15 -413 350 0 273 1 280 68 321 30 18 48 19
294 17 l261 -3 28 -25z"/>
<path d="M6054 3996 c-18 -14 -19 -31 -22 -315 l-3 -301 26 -25 25 -26 301 3
c284 3 301 4 315 22 11 16 14 77 14 321 0 280 -1 303 -18 318 -16 15 -53 17
-318 17 -243 0 -304 -3 -320 -14z"/>
<path d="M7048 3829 c-15 -8 -18 -25 -18 -104 l0 -95 255 0 255 0 0 95 c0 83
-2 96 -19 105 -26 13 -450 13 -473 -1z"/>
<path d="M8932 3828 c-9 -9 -12 -76 -12 -238 0 -162 3 -229 12 -238 17 -17
469 -17 486 0 9 9 12 75 12 234 0 189 -2 225 -16 238 -13 14 -49 16 -243 16
-163 0 -230 -3 -239 -12z"/>
<path d="M6906 2384 c-14 -13 -16 -49 -16 -238 0 -159 3 -225 12 -234 17 -17
469 -17 486 0 9 9 12 76 12 240 0 214 -1 228 -19 238 -12 6 -107 10 -240 10
-186 0 -222 -2 -235 -16z"/>
<path d="M6906 944 c-12 -12 -16 -37 -16 -105 l0 -89 255 0 255 0 0 95 c0 83
-2 96 -19 105 -12 6 -107 10 -240 10 -186 0 -222 -2 -235 -16z"/>
<path d="M7720 572 c0 -55 4 -92 12 -100 9 -9 79 -12 255 -12 l243 0 0 100 0
100 -255 0 -255 0 0 -88z"/>
<path d="M10518 949 c-15 -8 -18 -25 -18 -104 l0 -95 255 0 255 0 0 95 c0 83
-2 96 -19 105 -26 13 -450 13 -473 -1z"/>
<path d="M3895 4166 c-61 -28 -107 -66 -135 -111 -11 -18 -93 -233 -181 -477
-776 -2142 -954 -2629 -976 -2670 -28 -51 -82 -99 -141 -126 -33 -15 -97 -18
-557 -22 l-520 -5 -87 -245 c-48 -135 -88 -248 -88 -252 0 -5 348 -8 773 -8
865 0 827 -3 911 71 25 22 54 54 65 72 11 18 265 707 564 1532 300 825 555
1525 566 1556 29 75 88 141 159 176 l57 28 515 3 516 3 84 236 c47 130 86 242
88 250 3 11 -128 13 -780 13 l-783 0 -50 -24z"/>
<path d="M1313 2784 c-48 -17 -123 -80 -151 -127 -11 -18 -192 -511 -402
-1097 -484 -1348 -460 -1282 -460 -1292 0 -5 114 -7 252 -6 l253 3 150 405
c384 1030 500 1340 527 1411 35 92 78 145 149 184 l54 30 525 5 524 5 66 175
c36 96 78 208 93 248 l27 72 -783 -1 c-663 0 -788 -3 -824 -15z"/>
</g>
</svg>
