<svg style="position: absolute; width: 0; height: 0; overflow: hidden;" version="1.1" xmlns="http://www.w3.org/2000/svg" xmlns:xlink="http://www.w3.org/1999/xlink">
<defs>
<symbol id="icon-app-icons" viewBox="0 0 64 32">
<title>app-icons</title>
<path d="M16 26c-8.837 0-16-2.239-16-5v6c0 2.761 7.163 5 16 5s16-2.239 16-5v-6c0 2.761-7.163 5-16 5z"></path>
</symbol>
<symbol id="icon-Branches" viewBox="0 0 32 32">
<title>Branches</title>
<path fill="#d0d6d4" style="fill: var(--color1, #d0d6d4)" d="M31.987 0h-31.987l0.013 32h31.987l-0.013-32z"></path>
<path fill="#000" style="fill: var(--color2, #000)" d="M16.394 13.452c1.192 0.382 1.848 1.657 1.466 2.849s-1.657 1.848-2.849 1.466c-1.192-0.382-1.848-1.657-1.466-2.849s1.657-1.848 2.849-1.466z"></path>
<path fill="#000" style="fill: var(--color2, #000)" d="M19.405 8.32c-0.794 0-1.434 0.64-1.434 1.434 0 0.416 0.179 0.794 0.467 1.056l-1.178 1.869 0.429 0.269 1.171-1.869c0.166 0.070 0.352 0.109 0.544 0.109 0.794 0 1.434-0.64 1.434-1.434s-0.64-1.434-1.434-1.434z"></path>
<path fill="#000" style="fill: var(--color2, #000)" d="M23.968 15.814c-0.346-0.717-1.203-1.011-1.92-0.666-0.378 0.179-0.634 0.506-0.749 0.877l-2.195-0.243-0.058 0.499 2.189 0.243c0.013 0.179 0.058 0.365 0.141 0.538 0.346 0.717 1.203 1.011 1.92 0.666 0.717-0.339 1.018-1.197 0.672-1.914z"></path>
<path fill="#000" style="fill: var(--color2, #000)" d="M18.202 23.334c0.602-0.518 0.666-1.427 0.147-2.029-0.275-0.32-0.653-0.486-1.043-0.493l-0.333-2.182-0.499 0.077 0.333 2.182c-0.173 0.058-0.339 0.147-0.486 0.275-0.602 0.518-0.666 1.427-0.147 2.029 0.518 0.589 1.427 0.659 2.029 0.141z"></path>
<path fill="#000" style="fill: var(--color2, #000)" d="M8.41 18.982c0.608 0.506 1.517 0.422 2.022-0.192 0.269-0.32 0.365-0.73 0.314-1.114l2.099-0.691-0.16-0.48-2.093 0.691c-0.083-0.16-0.205-0.307-0.352-0.429-0.608-0.506-1.517-0.422-2.022 0.192-0.506 0.608-0.422 1.517 0.192 2.022z"></path>
<path fill="#000" style="fill: var(--color2, #000)" d="M9.517 10.483c-0.179 0.774 0.307 1.542 1.075 1.722 0.41 0.096 0.813 0 1.133-0.218l1.562 1.562 0.358-0.358-1.555-1.562c0.102-0.147 0.186-0.32 0.23-0.506 0.179-0.774-0.307-1.542-1.075-1.722-0.781-0.173-1.549 0.307-1.728 1.082z"></path>
</symbol>
<symbol id="icon-Consumers" viewBox="0 0 32 32">
<title>Consumers</title>
<path fill="#f9f7f7" style="fill: var(--color3, #f9f7f7)" d="M32 32h-32v-32h32v15.998z"></path>
<path fill="#faf8f8" style="fill: var(--color4, #faf8f8)" d="M15.998 0.718c0.294 0 14.779 0.117 14.968 0.312 0.19 0.19 0.312 14.679 0.312 14.968 0 0.294-0.117 14.779-0.312 14.968-0.19 0.19-14.679 0.312-14.968 0.312-0.293 0-14.779-0.117-14.968-0.312-0.19-0.19-0.312-14.679-0.312-14.968 0-0.293 0.117-14.779 0.312-14.968 0.19-0.19 14.679-0.312 14.968-0.312z"></path>
<path fill="#faf9f9" style="fill: var(--color5, #faf9f9)" d="M15.998 1.44c0.582 0 13.555 0.235 13.939 0.619s0.619 13.356 0.619 13.939c0 0.582-0.235 13.555-0.619 13.939s-13.356 0.619-13.939 0.619c-0.582 0-13.555-0.235-13.939-0.619s-0.619-13.356-0.619-13.939c0-0.582 0.235-13.555 0.619-13.939s13.356-0.619 13.939-0.619z"></path>
<path fill="#fbfafa" style="fill: var(--color6, #fbfafa)" d="M15.998 2.158c0.876 0 12.336 0.357 12.909 0.93s0.93 12.033 0.93 12.909c0 0.876-0.357 12.336-0.93 12.909s-12.033 0.93-12.909 0.93c-0.876 0-12.336-0.357-12.909-0.93s-0.93-12.033-0.93-12.909c0-0.876 0.357-12.336 0.93-12.909s12.033-0.93 12.909-0.93z"></path>
<path fill="#fcfbfb" style="fill: var(--color7, #fcfbfb)" d="M15.998 2.881c1.169 0 11.112 0.474 11.88 1.237 0.768 0.768 1.237 10.71 1.237 11.88s-0.474 11.112-1.237 11.88c-0.768 0.768-10.71 1.237-11.88 1.237s-11.112-0.474-11.88-1.237c-0.768-0.768-1.237-10.71-1.237-11.88s0.474-11.112 1.237-11.88 10.715-1.237 11.88-1.237z"></path>
<path fill="#fcfbfb" style="fill: var(--color7, #fcfbfb)" d="M15.998 3.599c1.458 0 9.893 0.592 10.85 1.549s1.549 9.387 1.549 10.85-0.591 9.893-1.549 10.85c-0.957 0.957-9.387 1.549-10.85 1.549s-9.893-0.591-10.85-1.549c-0.957-0.957-1.549-9.387-1.549-10.85s0.596-9.893 1.549-10.85c0.957-0.953 9.392-1.549 10.85-1.549z"></path>
<path fill="#fdfcfc" style="fill: var(--color8, #fdfcfc)" d="M15.998 4.321c1.752 0 8.669 0.709 9.821 1.86 1.147 1.147 1.86 8.069 1.86 9.821s-0.709 8.669-1.86 9.821c-1.147 1.142-8.069 1.856-9.821 1.856s-8.669-0.709-9.821-1.86c-1.147-1.147-1.86-8.069-1.86-9.821s0.709-8.669 1.86-9.821 8.069-1.856 9.821-1.856z"></path>
<path fill="#fefdfd" style="fill: var(--color9, #fefdfd)" d="M15.998 5.039c2.045 0 7.45 0.831 8.791 2.167 1.341 1.341 2.167 6.746 2.167 8.791s-0.831 7.45-2.167 8.791-6.746 2.167-8.791 2.167-7.45-0.831-8.791-2.167c-1.341-1.341-2.167-6.746-2.167-8.791s0.831-7.45 2.167-8.791c1.341-1.337 6.75-2.167 8.791-2.167z"></path>
<path fill="#fefefe" style="fill: var(--color10, #fefefe)" d="M15.998 5.762c2.334 0 6.231 0.948 7.762 2.479s2.479 5.423 2.479 7.762-0.948 6.231-2.479 7.762-5.423 2.479-7.762 2.479-6.231-0.948-7.762-2.479-2.479-5.423-2.479-7.762 0.948-6.231 2.479-7.762 5.427-2.479 7.762-2.479z"></path>
<path fill="#fff" style="fill: var(--color11, #fff)" d="M25.516 15.998c0 2.628-1.066 5.007-2.786 6.732-1.72 1.72-4.1 2.786-6.732 2.786s-5.007-1.066-6.732-2.786c-1.72-1.72-2.786-4.1-2.786-6.732 0-5.256 4.262-9.518 9.518-9.518s9.518 4.262 9.518 9.518z"></path>
<path fill="#303030" style="fill: var(--color12, #303030)" d="M15.158 12.769l7.22-2.167-0.095-0.316c-0.104-0.348-0.474-0.546-0.822-0.443l-5.956 1.788c-0.348 0.104-0.546 0.474-0.443 0.822l0.095 0.316z"></path>
<path fill="#303030" style="fill: var(--color12, #303030)" d="M23.538 14.855c-0.28-0.032-0.777 0.248-0.777 0.248l-1.373 0.655c-0.239 0.14-0.474 0.275-0.492 0.28-0.294 0.090-0.474 0.316-0.474 0.316v0c0 0.37-0.059 0.668-0.384 0.971-0.149 0.14-0.37 0.239-0.601 0.316-0.506 0.163-0.98 0.257-1.933 0.239-0.452-0.009-0.871-0.131-2.167-0.239-0.298-0.027-0.488-0.018-0.461-0.072 0.086-0.158 2.709 0.113 3.021 0.095 1.007-0.054 1.802-0.316 2.005-0.564 0.212-0.253 0.257-0.56 0.145-0.745-0.131-0.217-0.438-0.33-1.409-0.375-0.488-0.023-0.926-0.068-1.364-0.068-0.163 0-0.357-0.041-0.578-0.117-1.427-0.619-3.265-1.282-4.655-0.212-0.108 0.086-0.208 0.176-0.303 0.275s-0.181 0.208-0.262 0.321c-0.113 0.117-0.257 0.257-0.433 0.42-0.104 0.095-0.262 0.221-0.456 0.361l2.068 2.953c0.131-0.099 0.262-0.194 0.393-0.289l0.316-0.226c0.275-0.194 0.601-0.298 0.935-0.298h2.411l0.587-0.063c0.415-0.045 0.826-0.14 1.219-0.284l0.438-0.158 1.233-0.442c0.005 0 0.009-0.005 0.014-0.005 0.709-0.257 1.368-0.637 1.955-1.115l0.411-0.339c0.145-0.145 0.564-0.483 0.831-0.695 0.19-0.149 0.339-0.343 0.429-0.564 0.027-0.068 0.045-0.131 0.045-0.172 0.009-0.158-0.054-0.375-0.334-0.406z"></path>
<path fill="#303030" style="fill: var(--color12, #303030)" d="M8.114 17.98l2.854 4.199 1.775-1.513-2.723-3.892-1.905 1.206zM11.365 20.369c0.217 0 0.393 0.176 0.393 0.393s-0.176 0.393-0.393 0.393c-0.217 0-0.393-0.176-0.393-0.393s0.176-0.393 0.393-0.393z"></path>
<path fill="#303030" style="fill: var(--color12, #303030)" d="M15.822 14.982c0.384 0.135 0.741 0.284 1.034 0.411 0.221 0.072 0.352 0.090 0.424 0.090 0.289 0 0.569 0.018 0.867 0.036 0.167 0.009 0.339 0.023 0.515 0.032 0.036 0 0.072 0.005 0.108 0.005l4.041-1.21c0.348-0.104 0.546-0.474 0.442-0.822l-0.673-2.24-7.22 2.167 0.461 1.531zM20.906 13.203c0.068-0.023 0.14-0.023 0.208-0.009-0.041-0.334 0.167-0.655 0.497-0.754 0.375-0.113 0.768 0.099 0.876 0.474 0.113 0.375-0.099 0.768-0.474 0.876-0.194 0.059-0.393 0.027-0.555-0.063-0.036 0.149-0.145 0.275-0.303 0.321-0.23 0.068-0.479-0.063-0.546-0.293-0.068-0.239 0.068-0.483 0.298-0.551z"></path>
</symbol>
<symbol id="icon-masterdata" viewBox="0 0 24 32">
<title>masterdata</title>
<path d="M12 30c-6.626 0-12-1.793-12-4 0-1.207 0-2.527 0-4 0-0.348 0.174-0.678 0.424-1 1.338 1.723 5.99 3 11.576 3s10.238-1.277 11.576-3c0.25 0.322 0.424 0.652 0.424 1 0 1.158 0 2.387 0 4 0 2.207-5.375 4-12 4zM12 22c-6.626 0-12-1.793-12-4 0-1.208 0-2.526 0-4 0-0.212 0.080-0.418 0.188-0.622v0c0.061-0.128 0.141-0.254 0.236-0.378 1.338 1.722 5.99 3 11.576 3s10.238-1.278 11.576-3c0.096 0.124 0.176 0.25 0.236 0.378v0c0.107 0.204 0.188 0.41 0.188 0.622 0 1.158 0 2.386 0 4 0 2.207-5.375 4-12 4zM12 14c-6.626 0-12-1.792-12-4 0-0.632 0-1.3 0-2 0-0.636 0-1.296 0-2 0-2.208 5.374-4 12-4s12 1.792 12 4c0 0.624 0 1.286 0 2 0 0.612 0 1.258 0 2 0 2.208-5.375 4-12 4zM12 4c-4.418 0-8 0.894-8 2s3.582 2 8 2 8-0.894 8-2-3.582-2-8-2z"></path>
</symbol>
<symbol id="icon-settings" viewBox="0 0 28 32">
<title>settings</title>
<path d="M13.998 10.938c-2.794 0-5.061 2.267-5.061 5.063 0 2.793 2.267 5.064 5.061 5.064s5.045-2.271 5.045-5.064c-0-2.796-2.25-5.063-5.045-5.063zM24.145 18.908l-0.912 2.197 1.842 3.617-2.256 2.256-3.701-1.748-2.197 0.902-1.115 3.414-0.143 0.453h-3.188l-1.38-3.854-2.197-0.906-3.622 1.834-2.255-2.254 1.746-3.703-0.905-2.195-3.86-1.26v-3.187l3.856-1.382 0.905-2.193-1.622-3.202-0.214-0.42 2.252-2.252 3.706 1.745 2.194-0.907 1.114-3.412 0.144-0.452h3.188l1.381 3.858 2.191 0.907 3.627-1.838 2.254 2.252-1.746 3.7 0.902 2.198 3.867 1.258v3.186l-3.855 1.387z"></path>
</symbol>
<symbol id="icon-masterdata-1" viewBox="0 0 32 32">
<title>masterdata-1</title>
<path d="M16 0c-8.837 0-16 2.239-16 5v4c0 2.761 7.163 5 16 5s16-2.239 16-5v-4c0-2.761-7.163-5-16-5z"></path>
<path d="M16 17c-8.837 0-16-2.239-16-5v6c0 2.761 7.163 5 16 5s16-2.239 16-5v-6c0 2.761-7.163 5-16 5z"></path>
<path d="M16 26c-8.837 0-16-2.239-16-5v6c0 2.761 7.163 5 16 5s16-2.239 16-5v-6c0 2.761-7.163 5-16 5z"></path>
</symbol>
</defs>
</svg>
