<svg style="position: absolute; width: 0; height: 0; overflow: hidden;" version="1.1" xmlns="http://www.w3.org/2000/svg" xmlns:xlink="http://www.w3.org/1999/xlink">
<defs>
<symbol id="icon-trip-activity" viewBox="0 0 27 32">
<title>trip-activity</title>
<path d="M13.879 2.59h3.022v3.022h-3.022v-3.022zM18.849 2.59h5.608v16.838h-9.45l-2.574-2.38c-0.559-0.516-1.379-0.633-2.059-0.293l-4.050 2.025v-16.19h5.608v6.129h6.917v-6.129zM18.85 13.532v-2.885h-6.919v2.885h6.919z"></path>
<path d="M2.309 29.443c-0.647-0.005-1.166-0.517-1.166-1.149 0 0 0-8.042 0-8.042 0-0.634 0.522-1.149 1.166-1.149h2.331c0.643 0 1.166 0.515 1.166 1.149v8.042c0 0.632-0.519 1.144-1.159 1.149h-2.338zM6.971 20.827c0 0 2.742-1.342 3.481-1.653 0.372-0.157 0.801-0.113 1.132 0.118 0.378 0.338 1.372 1.135 1.89 1.544 0.295 0.204 0.476 0.532 0.492 0.887 0.014 0.307-0.098 0.604-0.305 0.827h9.631c0.309 0 0.606 0.121 0.824 0.337 0.219 0.215 0.342 0.508 0.342 0.812 0 0.033 0 0.067 0 0.099 0 0.304-0.122 0.596-0.342 0.812-0.671 0.662-3.738 3.684-3.738 3.684h-13.406v-7.467z"></path>
</symbol>
<symbol id="icon-package-status" viewBox="0 0 32 32">
<title>package-status</title>
<path d="M20.421 4.686l8.112 3.38v15.867l-13.6 5.667-13.6-5.667v-15.867l13.6-5.667 5.488 2.286-13.189 6.433v4.141l2.307 1.064v-4.141l13.3-6.49-2.417-1.008zM26.062 15.201c0.305-0.147 0.498-0.556 0.346-0.735l-1.521-1.799c-0.15-0.178-0.525 0.011-0.675 0.339l-1.482 3.244c-0.145 0.317 0.038 0.537 0.329 0.397l0.62-0.298 0.003 4.611c0 0.202 0.17 0.289 0.38 0.195l0.958-0.429c0.213-0.096 0.387-0.339 0.388-0.543l0.013-4.673 0.64-0.308zM19.804 22.705l-0.038-4.474 0.593-0.285c0.282-0.136 0.457-0.524 0.314-0.698l-1.436-1.744c-0.142-0.172-0.489 0.003-0.625 0.314l-1.347 3.083c-0.132 0.301 0.041 0.515 0.311 0.385l0.575-0.277 0.052 4.418c0.002 0.193 0.162 0.279 0.357 0.192l0.889-0.398c0.198-0.089 0.357-0.319 0.356-0.515zM27.12 21.422l0.003-0.558c0.001-0.103-0.087-0.147-0.197-0.099l-10.169 4.493c-0.095 0.042-0.171 0.153-0.169 0.248l0.008 0.515c0.001 0.095 0.079 0.138 0.174 0.097l10.151-4.423c0.109-0.048 0.198-0.169 0.199-0.272z"></path>
</symbol>
<symbol id="icon-location" viewBox="0 0 23 32">
<title>location</title>
<path d="M10.667 2.747c-5.316 0-9.616 4.3-9.616 9.616 0 7.212 9.616 17.859 9.616 17.859s9.616-10.646 9.616-17.859c0-5.316-4.3-9.616-9.616-9.616zM10.667 15.798c-1.896 0-3.434-1.539-3.434-3.434s1.539-3.434 3.434-3.434c1.896 0 3.434 1.539 3.434 3.434s-1.539 3.434-3.434 3.434z"></path>
</symbol>
<symbol id="icon-profile" viewBox="0 0 32 32">
<title>profile</title>
<path fill="none" opacity="0.5" stroke="#fff" stroke-width="0.9412" stroke-miterlimit="4" stroke-linecap="round" stroke-linejoin="round" style="stroke: var(--color2, #fff)" d="M21.726 13.333h-6.667"></path>
<path fill="none" opacity="0.5" stroke="#fff" stroke-width="0.9412" stroke-miterlimit="4" stroke-linecap="round" stroke-linejoin="round" style="stroke: var(--color2, #fff)" d="M16.392 11.448l-1.886 1.886 1.886 1.886"></path>
<path d="M15.059 2.667c-7.36 0-13.333 5.973-13.333 13.333s5.973 13.333 13.333 13.333c7.36 0 13.333-5.973 13.333-13.333s-5.973-13.333-13.333-13.333zM15.059 6.667c2.213 0 4 1.787 4 4s-1.787 4-4 4c-2.213 0-4-1.787-4-4s1.787-4 4-4zM15.059 25.6c-3.333 0-6.28-1.707-8-4.293 0.040-2.653 5.333-4.107 8-4.107 2.653 0 7.96 1.453 8 4.107-1.72 2.587-4.667 4.293-8 4.293z"></path>
</symbol>
<symbol id="icon-vehicle-activity" viewBox="0 0 39 30">
<title>vehicle-activity</title>

<path d="M30.356 9.266h-4.536v-6.005h-21.166c-1.663 0-3.024 1.351-3.024 3.003v16.515h3.024c0 2.492 2.026 4.504 4.536 4.504s4.536-2.012 4.536-4.504h9.071c0 2.492 2.026 4.504 4.536 4.504s4.536-2.012 4.536-4.504h3.024v-7.507l-4.536-6.005zM9.19 25.031c-1.255 0-2.268-1.006-2.268-2.252s1.013-2.252 2.268-2.252c1.255 0 2.268 1.006 2.268 2.252s-1.013 2.252-2.268 2.252zM29.6 11.518l2.963 3.753h-6.743v-3.753h3.78zM27.332 25.031c-1.255 0-2.268-1.006-2.268-2.252s1.013-2.252 2.268-2.252c1.255 0 2.268 1.006 2.268 2.252s-1.013 2.252-2.268 2.252z"></path>

</symbol>
<symbol id="icon-density-map" viewBox="0 0 34 32">
<title>density-map</title>
<path d="M29.387 7.010l-3.181-3.991c-0.3-0.377-0.756-0.597-1.239-0.597h-16.443c-0.482 0-0.938 0.22-1.239 0.597l-3.181 3.991c-0.332 0.417-0.604 1.194-0.604 1.781v2.924c0.253-0.398 0.622-0.696 1.065-0.849 0.025-0.334 0.126-0.658 0.299-0.953 0.3-0.511 0.782-0.875 1.355-1.024 0.206-0.054 0.394-0.078 0.582-0.078 0.759 0 1.446 0.386 1.849 0.992 0.12-0.021 0.241-0.032 0.362-0.032 0.373 0 0.725 0.102 1.031 0.279l1.762-0.458c0.221-0.058 0.448-0.087 0.675-0.087 1.219 0 2.284 0.824 2.591 2.005l3.454 13.274c0.18 0.692 0.080 1.414-0.282 2.031s-0.944 1.056-1.636 1.236l-1.541 0.401h12.945c1.093 0 1.98-0.886 1.98-1.98l-0-17.735c0-0.533-0.272-1.311-0.604-1.728zM5.143 6.977l1.054-1.322h7.188l0.709-1.166h-6.968l0.778-0.976c0.151-0.19 0.377-0.298 0.619-0.298h16.443c0.242 0 0.468 0.109 0.619 0.298l0.778 0.976h-7.092l0.396 1.166h7.626l1.054 1.322h-23.204zM5.465 11.854l-0.444 0.116c-0.473 0.123-0.757 0.607-0.634 1.080l0.005 0.017c0.123 0.473 0.607 0.757 1.080 0.634l3.769-0.98c0.473-0.123 0.757-0.607 0.634-1.080l-0.005-0.017c-0.123-0.473-0.607-0.757-1.080-0.634l-0.444 0.116c-0.237 0.062-0.48-0.081-0.542-0.318l-0.004-0.014c-0.143-0.551-0.707-0.882-1.258-0.739l-0.023 0.006c-0.551 0.143-0.882 0.707-0.739 1.258l0.004 0.014c0.062 0.238-0.081 0.48-0.318 0.542zM6.679 10.613c0.239-0.062 0.483 0.081 0.545 0.32s-0.081 0.483-0.32 0.545c-0.239 0.062-0.483-0.081-0.545-0.32s0.081-0.483 0.32-0.545zM12.233 24.265c0.041 0.159-0.054 0.322-0.213 0.364l-5.483 1.426c-0.159 0.041-0.322-0.054-0.364-0.213l-0.075-0.288c-0.041-0.159 0.054-0.322 0.213-0.364l5.483-1.426c0.159-0.041 0.322 0.054 0.364 0.213l0.075 0.289zM12.902 18.545l0.075 0.289c0.041 0.159-0.054 0.322-0.213 0.364l-7.503 1.952c-0.159 0.041-0.322-0.054-0.364-0.213l-0.075-0.289c-0.041-0.159 0.054-0.322 0.213-0.364l7.503-1.952c0.159-0.041 0.322 0.054 0.364 0.213zM12.088 16.6l-7.503 1.952c-0.159 0.041-0.322-0.054-0.364-0.213l-0.075-0.289c-0.041-0.159 0.054-0.322 0.213-0.364l7.503-1.952c0.159-0.041 0.322 0.054 0.364 0.213l0.075 0.289c0.041 0.159-0.054 0.322-0.213 0.364zM11.921 21.881l-6.060 1.576c-0.159 0.041-0.322-0.054-0.364-0.213l-0.075-0.289c-0.041-0.159 0.054-0.322 0.213-0.364l6.060-1.576c0.159-0.041 0.322 0.054 0.364 0.213l0.075 0.289c0.041 0.159-0.054 0.322-0.213 0.364zM17.376 25.084l-3.453-13.274c-0.207-0.797-1.021-1.275-1.818-1.067l-1.76 0.458c0.042 0.086 0.076 0.177 0.101 0.272 0.21 0.808-0.266 1.619-1.057 1.825l-3.713 0.966c-0.758 0.197-1.574-0.193-1.829-0.934-0.048-0.14-0.074-0.28-0.081-0.418l-1.761 0.458c-0.797 0.207-1.275 1.021-1.067 1.818l3.453 13.274c0.207 0.797 1.021 1.275 1.818 1.067l10.1-2.627c0.797-0.207 1.275-1.021 1.067-1.818zM5.833 28.087l-3.003-11.543 10.1-2.627 3.003 11.543-10.1 2.627z"></path>
</symbol>
<symbol id="icon-dashboard" viewBox="0 0 32 32">
<title>dashboard</title>
<path d="M1.333 17.511h12.089v-15.111h-12.089v15.111zM1.333 29.6h12.089v-9.067h-12.089v9.067zM16.444 29.6h12.089v-15.111h-12.089v15.111zM16.444 2.4v9.067h12.089v-9.067h-12.089z"></path>
</symbol>

<symbol id="icon-menu-access" viewBox="0 0 50 30">
<title>menu</title>
<path fill="#fff" style="fill: var(--color1, #fff)" d="M0 0h41.6v32h-41.6v-32z"></path>
<path fill="#000" opacity="0.2916" style="fill: var(--color2, #000)" d="M26.319 32h12.225c1.681 0 3.056-1.238 3.056-2.751v-8.252c0-1.513-1.375-2.751-3.056-2.751v-2.751c0-3.053-2.751-5.501-6.113-5.501-3.392 0-6.113 2.476-6.113 5.501v2.751c-1.681 0-3.056 1.238-3.056 2.751v8.252c0 1.513 1.375 2.751 3.056 2.751zM28.764 15.496c0-1.815 1.65-3.301 3.668-3.301s3.668 1.485 3.668 3.301v2.751h-7.335v-2.751zM0 32h22.4v-6.4h-22.4v6.4zM0 19.2h22.4v-6.4h-22.4v6.4zM0 0v6.4h41.6v-6.4h-41.6z"></path>
</symbol>

</defs>
</svg>

